<mxfile host="app.diagrams.net" agent="Mozilla/5.0 (Windows NT 10.0; Win64; x64) AppleWebKit/537.36 (KHTML, like Gecko) Chrome/126.0.0.0 Safari/537.36 Edg/126.0.0.0" version="27.1.6">
  <diagram id="C5RBs43oDa-KdzZeNtuy" name="Page-1">
    <mxGraphModel dx="1213" dy="1917" grid="1" gridSize="10" guides="1" tooltips="1" connect="1" arrows="1" fold="1" page="1" pageScale="1" pageWidth="827" pageHeight="1169" math="0" shadow="0">
      <root>
        <mxCell id="WIyWlLk6GJQsqaUBKTNV-0" />
        <mxCell id="WIyWlLk6GJQsqaUBKTNV-1" parent="WIyWlLk6GJQsqaUBKTNV-0" />
        <mxCell id="l-McrCfC7oMy8E5tvJp--4" value="" style="edgeStyle=orthogonalEdgeStyle;rounded=0;orthogonalLoop=1;jettySize=auto;html=1;" edge="1" parent="WIyWlLk6GJQsqaUBKTNV-1" source="wtoBuKppIlHVEqeQYXbZ-0" target="l-McrCfC7oMy8E5tvJp--0">
          <mxGeometry relative="1" as="geometry" />
        </mxCell>
        <mxCell id="wtoBuKppIlHVEqeQYXbZ-0" value="输入指向两个整数的指针" style="shape=parallelogram;perimeter=parallelogramPerimeter;whiteSpace=wrap;html=1;fixedSize=1;" parent="WIyWlLk6GJQsqaUBKTNV-1" vertex="1">
          <mxGeometry x="140" y="90" width="170" height="60" as="geometry" />
        </mxCell>
        <mxCell id="l-McrCfC7oMy8E5tvJp--5" value="" style="edgeStyle=orthogonalEdgeStyle;rounded=0;orthogonalLoop=1;jettySize=auto;html=1;" edge="1" parent="WIyWlLk6GJQsqaUBKTNV-1" source="wtoBuKppIlHVEqeQYXbZ-1" target="wtoBuKppIlHVEqeQYXbZ-0">
          <mxGeometry relative="1" as="geometry" />
        </mxCell>
        <mxCell id="wtoBuKppIlHVEqeQYXbZ-1" value="swap函数" style="rounded=1;whiteSpace=wrap;html=1;" parent="WIyWlLk6GJQsqaUBKTNV-1" vertex="1">
          <mxGeometry x="165" y="-10" width="120" height="60" as="geometry" />
        </mxCell>
        <mxCell id="l-McrCfC7oMy8E5tvJp--9" value="" style="edgeStyle=orthogonalEdgeStyle;rounded=0;orthogonalLoop=1;jettySize=auto;html=1;" edge="1" parent="WIyWlLk6GJQsqaUBKTNV-1" source="l-McrCfC7oMy8E5tvJp--0" target="l-McrCfC7oMy8E5tvJp--1">
          <mxGeometry relative="1" as="geometry" />
        </mxCell>
        <mxCell id="l-McrCfC7oMy8E5tvJp--0" value="&#xa;&lt;pre style=&quot;-webkit-font-smoothing: antialiased; box-sizing: border-box; -webkit-tap-highlight-color: rgba(0, 0, 0, 0); font-family: ui-monospace, SFMono-Regular, &amp;quot;SF Mono&amp;quot;, Menlo, Consolas, &amp;quot;Liberation Mono&amp;quot;, monospace; white-space: pre; overflow-wrap: normal; --code-text_v3: #000000d9; --code-doc_v3: #00000073; --code-Link_v3: #2f74ff; --code-number_v3: #e54595; --code-keycontrol_v3: #9952e1; --code-function_v3: #ff5d4d; --code-variable_v3: #000000d9; --code-parameter_v3: #4da621; --code-attributes_v3: #c70; --code-selection-bg-color: #ebf1ff; background: var(--color-bg-page); color: rgb(0, 0, 0); word-break: normal; word-spacing: 0px; hyphens: none; line-height: 1.5; tab-size: 4; margin: 0px; overflow: auto; font-size: 13.6px; border-radius: 6px; padding: 0px; overflow-anchor: auto; width: fit-content; font-style: normal; font-variant-ligatures: normal; font-variant-caps: normal; font-weight: 400; letter-spacing: normal; orphans: 2; text-align: start; text-indent: 0px; text-transform: none; widows: 2; -webkit-text-stroke-width: 0px; text-decoration-thickness: initial; text-decoration-style: initial; text-decoration-color: initial;&quot; tabindex=&quot;0&quot; class=&quot;container-sD6IXt language-plaintext&quot;&gt;&lt;code style=&quot;-webkit-font-smoothing: antialiased; box-sizing: border-box; -webkit-tap-highlight-color: rgba(0, 0, 0, 0); background: transparent; border-radius: 4px; color: var(--code-block-code-color); font-size: 13px; font-family: Menlo, Monaco, Consolas, &amp;quot;Courier New&amp;quot;, monospace; white-space: pre; word-break: normal; word-spacing: normal; overflow-wrap: normal; hyphens: none; line-height: 1.5; tab-size: 4; overflow-anchor: auto;&quot; class=&quot;language-plaintext&quot;&gt;temp = *a&lt;/code&gt;&lt;/pre&gt;&#xa;&#xa;" style="rounded=0;whiteSpace=wrap;html=1;" vertex="1" parent="WIyWlLk6GJQsqaUBKTNV-1">
          <mxGeometry x="165" y="180" width="120" height="60" as="geometry" />
        </mxCell>
        <mxCell id="l-McrCfC7oMy8E5tvJp--10" value="" style="edgeStyle=orthogonalEdgeStyle;rounded=0;orthogonalLoop=1;jettySize=auto;html=1;" edge="1" parent="WIyWlLk6GJQsqaUBKTNV-1" source="l-McrCfC7oMy8E5tvJp--1" target="l-McrCfC7oMy8E5tvJp--2">
          <mxGeometry relative="1" as="geometry" />
        </mxCell>
        <mxCell id="l-McrCfC7oMy8E5tvJp--1" value="&#xa;&lt;pre style=&quot;-webkit-font-smoothing: antialiased; box-sizing: border-box; -webkit-tap-highlight-color: rgba(0, 0, 0, 0); font-family: ui-monospace, SFMono-Regular, &amp;quot;SF Mono&amp;quot;, Menlo, Consolas, &amp;quot;Liberation Mono&amp;quot;, monospace; white-space: pre; overflow-wrap: normal; --code-text_v3: #000000d9; --code-doc_v3: #00000073; --code-Link_v3: #2f74ff; --code-number_v3: #e54595; --code-keycontrol_v3: #9952e1; --code-function_v3: #ff5d4d; --code-variable_v3: #000000d9; --code-parameter_v3: #4da621; --code-attributes_v3: #c70; --code-selection-bg-color: #ebf1ff; background: var(--color-bg-page); color: rgb(0, 0, 0); word-break: normal; word-spacing: 0px; hyphens: none; line-height: 1.5; tab-size: 4; margin: 0px; overflow: auto; font-size: 13.6px; border-radius: 6px; padding: 0px; overflow-anchor: auto; width: fit-content; font-style: normal; font-variant-ligatures: normal; font-variant-caps: normal; font-weight: 400; letter-spacing: normal; orphans: 2; text-align: start; text-indent: 0px; text-transform: none; widows: 2; -webkit-text-stroke-width: 0px; text-decoration-thickness: initial; text-decoration-style: initial; text-decoration-color: initial;&quot; tabindex=&quot;0&quot; class=&quot;container-sD6IXt language-plaintext&quot;&gt;&lt;code style=&quot;-webkit-font-smoothing: antialiased; box-sizing: border-box; -webkit-tap-highlight-color: rgba(0, 0, 0, 0); background: transparent; border-radius: 4px; color: var(--code-block-code-color); font-size: 13px; font-family: Menlo, Monaco, Consolas, &amp;quot;Courier New&amp;quot;, monospace; white-space: pre; word-break: normal; word-spacing: normal; overflow-wrap: normal; hyphens: none; line-height: 1.5; tab-size: 4; overflow-anchor: auto;&quot; class=&quot;language-plaintext&quot;&gt;*a = *b   &lt;/code&gt;&lt;/pre&gt;&#xa;&#xa;" style="rounded=0;whiteSpace=wrap;html=1;" vertex="1" parent="WIyWlLk6GJQsqaUBKTNV-1">
          <mxGeometry x="165" y="270" width="120" height="60" as="geometry" />
        </mxCell>
        <mxCell id="l-McrCfC7oMy8E5tvJp--12" value="" style="edgeStyle=orthogonalEdgeStyle;rounded=0;orthogonalLoop=1;jettySize=auto;html=1;" edge="1" parent="WIyWlLk6GJQsqaUBKTNV-1" source="l-McrCfC7oMy8E5tvJp--2" target="l-McrCfC7oMy8E5tvJp--11">
          <mxGeometry relative="1" as="geometry" />
        </mxCell>
        <mxCell id="l-McrCfC7oMy8E5tvJp--2" value="&#xa;&lt;pre style=&quot;-webkit-font-smoothing: antialiased; box-sizing: border-box; -webkit-tap-highlight-color: rgba(0, 0, 0, 0); font-family: ui-monospace, SFMono-Regular, &amp;quot;SF Mono&amp;quot;, Menlo, Consolas, &amp;quot;Liberation Mono&amp;quot;, monospace; white-space: pre; overflow-wrap: normal; --code-text_v3: #000000d9; --code-doc_v3: #00000073; --code-Link_v3: #2f74ff; --code-number_v3: #e54595; --code-keycontrol_v3: #9952e1; --code-function_v3: #ff5d4d; --code-variable_v3: #000000d9; --code-parameter_v3: #4da621; --code-attributes_v3: #c70; --code-selection-bg-color: #ebf1ff; background: var(--color-bg-page); color: rgb(0, 0, 0); word-break: normal; word-spacing: 0px; hyphens: none; line-height: 1.5; tab-size: 4; margin: 0px; overflow: auto; font-size: 13.6px; border-radius: 6px; padding: 0px; overflow-anchor: auto; width: fit-content; font-style: normal; font-variant-ligatures: normal; font-variant-caps: normal; font-weight: 400; letter-spacing: normal; orphans: 2; text-align: start; text-indent: 0px; text-transform: none; widows: 2; -webkit-text-stroke-width: 0px; text-decoration-thickness: initial; text-decoration-style: initial; text-decoration-color: initial;&quot; tabindex=&quot;0&quot; class=&quot;container-sD6IXt language-plaintext&quot;&gt;&lt;code style=&quot;-webkit-font-smoothing: antialiased; box-sizing: border-box; -webkit-tap-highlight-color: rgba(0, 0, 0, 0); background: transparent; border-radius: 4px; color: var(--code-block-code-color); font-size: 13px; font-family: Menlo, Monaco, Consolas, &amp;quot;Courier New&amp;quot;, monospace; white-space: pre; word-break: normal; word-spacing: normal; overflow-wrap: normal; hyphens: none; line-height: 1.5; tab-size: 4; overflow-anchor: auto;&quot; class=&quot;language-plaintext&quot;&gt; *b = temp &lt;/code&gt;&lt;/pre&gt;&#xa;&#xa;" style="rounded=0;whiteSpace=wrap;html=1;" vertex="1" parent="WIyWlLk6GJQsqaUBKTNV-1">
          <mxGeometry x="165" y="350" width="120" height="60" as="geometry" />
        </mxCell>
        <mxCell id="l-McrCfC7oMy8E5tvJp--11" value="结束" style="rounded=1;whiteSpace=wrap;html=1;" vertex="1" parent="WIyWlLk6GJQsqaUBKTNV-1">
          <mxGeometry x="165" y="430" width="120" height="60" as="geometry" />
        </mxCell>
      </root>
    </mxGraphModel>
  </diagram>
</mxfile>
